<svg width="19" height="32" viewBox="0 0 19 32" fill="none" xmlns="http://www.w3.org/2000/svg">
<path d="M6.90967 19.3674C6.90967 19.6773 7.16094 19.9286 7.47089 19.9286H8.18926C8.06721 19.5678 8.02321 19.1852 8.06018 18.8062H7.47089C7.16094 18.8062 6.90967 19.0574 6.90967 19.3674Z" fill="#212133"/>
<path d="M11.3527 0.325843C10.9158 0.232688 10.4598 0.316961 10.0851 0.560108C9.71039 0.803256 9.44765 1.18535 9.35474 1.62227L7.73841 11.9264C7.6658 12.3185 7.32959 12.607 6.93097 12.6191C6.53234 12.6313 6.17918 12.3639 6.0828 11.9769L4.10167 2.86258C4.01331 2.25321 3.59936 1.74069 3.02223 1.52609C2.44509 1.31149 1.79685 1.42905 1.33183 1.83265C0.866812 2.23625 0.659199 2.8615 0.79045 3.46309L2.67055 13.7559C2.81558 14.5397 2.80605 15.3442 2.64249 16.1243C3.21641 15.5579 3.82968 15.0328 4.4777 14.5529C5.15189 14.0386 5.97567 13.7588 6.82361 13.7559H10.5726L12.6491 2.32941C12.7439 1.89172 12.6605 1.43428 12.4172 1.05827C12.1739 0.682272 11.7908 0.418695 11.3527 0.325843Z" fill="#212133"/>
<path d="M12.1222 21.1183C11.8293 21.3305 11.4975 21.4831 11.1457 21.5673C11.2219 21.6896 11.2894 21.8172 11.3477 21.9489C11.4232 22.1218 11.4068 22.3211 11.3039 22.4793C11.2011 22.6375 11.0257 22.7334 10.837 22.7347C10.6152 22.7332 10.415 22.6012 10.3263 22.3979C9.96814 21.5772 9.15647 21.0479 8.26101 21.051H7.46968C6.53982 21.051 5.78601 20.2972 5.78601 19.3673C5.78601 18.4374 6.53982 17.6836 7.46968 17.6836H9.15336C10.3932 17.6836 11.3983 16.6786 11.3983 15.4387V14.8775H6.82428C6.21711 14.8775 5.62633 15.0744 5.1406 15.4387C2.9406 17.0775 0.73499 19.5188 0.73499 22.3025C0.733357 23.5568 1.12601 24.7799 1.85744 25.7989L4.66356 29.6714C5.08984 30.2629 5.28905 30.988 5.22479 31.7142H14.7656C14.7656 30.1877 14.6141 30.5918 17.0835 26.3882C17.7329 25.0753 18.0909 23.6376 18.1329 22.1734V19.5806L16.8253 21.6627C16.3097 22.5515 15.3161 23.0499 14.2954 22.9318C13.2746 22.8136 12.4212 22.1014 12.1222 21.1183Z" fill="#212133"/>
<path d="M9.17999 18.8061C9.0771 19.2768 9.22091 19.7674 9.5616 20.1081C9.90229 20.4488 10.393 20.5926 10.8637 20.4897C11.6774 20.3101 11.9861 19.676 12.407 18.9576C14.6968 15.2984 14.6126 15.4443 14.6519 15.3321C15.1673 14.6082 14.999 13.6036 14.2759 13.0872C13.9118 12.8836 13.4813 12.8343 13.0806 12.9503C12.6799 13.0663 12.3423 13.3379 12.1433 13.7045L11.9917 13.9459C12.3139 14.1471 12.5124 14.4977 12.5193 14.8775V15.4387C12.5193 17.2875 11.0288 18.7907 9.17999 18.8061Z" fill="#212133"/>
<path d="M18.0221 14.8774C17.2933 14.4623 16.366 14.7129 15.9456 15.4387C15.6201 15.9662 16.1701 15.0346 13.3696 19.5581C13.1487 19.9065 13.076 20.3287 13.1675 20.731C13.3148 21.3223 13.8127 21.7607 14.4179 21.8318C15.0231 21.9029 15.6091 21.5919 15.8895 21.0509L18.4711 16.9484C18.9189 16.2525 18.7179 15.3254 18.0221 14.8774Z" fill="#212133"/>
</svg>
